<mxfile host="Electron" modified="2024-02-25T08:37:31.563Z" agent="Mozilla/5.0 (Windows NT 10.0; Win64; x64) AppleWebKit/537.36 (KHTML, like Gecko) draw.io/23.1.5 Chrome/120.0.6099.109 Electron/28.1.0 Safari/537.36" etag="OM5GuhZBiRlAGAa_sWKw" version="23.1.5" type="device">
  <diagram name="Страница — 1" id="VBhK6F4aGweusVhwbYlx">
    <mxGraphModel dx="629" dy="1104" grid="1" gridSize="10" guides="1" tooltips="1" connect="1" arrows="1" fold="1" page="1" pageScale="1" pageWidth="827" pageHeight="1169" math="0" shadow="0">
      <root>
        <mxCell id="0" />
        <mxCell id="1" parent="0" />
        <mxCell id="59hERydLF0PkMegEaoaK-1" value="start" style="ellipse;whiteSpace=wrap;html=1;" vertex="1" parent="1">
          <mxGeometry x="180" y="80" width="120" height="40" as="geometry" />
        </mxCell>
        <mxCell id="59hERydLF0PkMegEaoaK-2" value="" style="endArrow=classic;html=1;rounded=0;labelBackgroundColor=default;strokeColor=default;align=center;verticalAlign=middle;fontFamily=Helvetica;fontSize=11;fontColor=default;shape=connector;edgeStyle=orthogonalEdgeStyle;exitX=0.5;exitY=1;exitDx=0;exitDy=0;" edge="1" source="59hERydLF0PkMegEaoaK-1" parent="1">
          <mxGeometry width="50" height="50" relative="1" as="geometry">
            <mxPoint x="290.29" y="190" as="sourcePoint" />
            <mxPoint x="240" y="220" as="targetPoint" />
          </mxGeometry>
        </mxCell>
        <mxCell id="59hERydLF0PkMegEaoaK-3" style="edgeStyle=orthogonalEdgeStyle;rounded=0;orthogonalLoop=1;jettySize=auto;html=1;exitX=0;exitY=0.5;exitDx=0;exitDy=0;exitPerimeter=0;endArrow=none;endFill=0;strokeWidth=1;" edge="1" source="59hERydLF0PkMegEaoaK-4" parent="1">
          <mxGeometry relative="1" as="geometry">
            <mxPoint x="240" y="150" as="targetPoint" />
            <mxPoint x="300" y="150" as="sourcePoint" />
          </mxGeometry>
        </mxCell>
        <mxCell id="59hERydLF0PkMegEaoaK-4" value="" style="strokeWidth=2;html=1;shape=mxgraph.flowchart.annotation_1;align=left;pointerEvents=1;" vertex="1" parent="1">
          <mxGeometry x="340" y="60" width="50" height="180" as="geometry" />
        </mxCell>
        <mxCell id="59hERydLF0PkMegEaoaK-5" value="#include &amp;lt;iostream&amp;gt;&lt;br&gt;using namespace std;&lt;br&gt;&lt;div&gt;static short int desk[66][8] = { {0, 1, 2, 3, 4, 5, 6, 7} };&lt;/div&gt;&lt;div&gt;bool show_desk = false;&lt;/div&gt;&lt;div&gt;&lt;br&gt;&lt;/div&gt;&lt;div&gt;&lt;div&gt;void desk_rec(int n);&lt;/div&gt;&lt;div&gt;void desk_print(int n, int curs);&lt;/div&gt;&lt;div&gt;void desk_place(int n);&lt;/div&gt;&lt;div&gt;void desk_print_all();&lt;/div&gt;&lt;/div&gt;&lt;div&gt;&lt;br&gt;&lt;/div&gt;int main(){&lt;br&gt;&lt;span style=&quot;&quot;&gt;&lt;span style=&quot;&quot;&gt;&amp;nbsp;&amp;nbsp;&amp;nbsp;&amp;nbsp;&lt;/span&gt;&lt;/span&gt;system(&quot;chcp 1251&quot;);" style="text;strokeColor=none;fillColor=none;align=left;verticalAlign=middle;spacingLeft=4;spacingRight=4;overflow=hidden;points=[[0,0.5],[1,0.5]];portConstraint=eastwest;rotatable=0;whiteSpace=wrap;html=1;" vertex="1" parent="1">
          <mxGeometry x="340" y="60" width="330" height="180" as="geometry" />
        </mxCell>
        <mxCell id="59hERydLF0PkMegEaoaK-7" style="edgeStyle=orthogonalEdgeStyle;rounded=0;orthogonalLoop=1;jettySize=auto;html=1;exitX=0.5;exitY=1;exitDx=0;exitDy=0;" edge="1" parent="1" source="59hERydLF0PkMegEaoaK-6" target="59hERydLF0PkMegEaoaK-8">
          <mxGeometry relative="1" as="geometry">
            <mxPoint x="240" y="300" as="targetPoint" />
          </mxGeometry>
        </mxCell>
        <mxCell id="59hERydLF0PkMegEaoaK-6" value="int n;" style="rounded=1;whiteSpace=wrap;html=1;absoluteArcSize=1;arcSize=14;strokeWidth=2;" vertex="1" parent="1">
          <mxGeometry x="190" y="220" width="100" height="40" as="geometry" />
        </mxCell>
        <mxCell id="59hERydLF0PkMegEaoaK-9" style="edgeStyle=orthogonalEdgeStyle;rounded=0;orthogonalLoop=1;jettySize=auto;html=1;exitX=0.5;exitY=1;exitDx=0;exitDy=0;" edge="1" parent="1" source="59hERydLF0PkMegEaoaK-8" target="59hERydLF0PkMegEaoaK-10">
          <mxGeometry relative="1" as="geometry">
            <mxPoint x="240" y="360" as="targetPoint" />
          </mxGeometry>
        </mxCell>
        <mxCell id="59hERydLF0PkMegEaoaK-8" value="cout &amp;lt;&amp;lt; &quot;Введите номер столбца в верхней &lt;br&gt;строке, с которого хотите начать: &quot;;" style="shape=parallelogram;html=1;strokeWidth=2;perimeter=parallelogramPerimeter;whiteSpace=wrap;rounded=1;arcSize=12;size=0.10714285714285776;" vertex="1" parent="1">
          <mxGeometry x="90" y="280" width="300" height="40" as="geometry" />
        </mxCell>
        <mxCell id="59hERydLF0PkMegEaoaK-11" style="edgeStyle=orthogonalEdgeStyle;rounded=0;orthogonalLoop=1;jettySize=auto;html=1;exitX=0.5;exitY=1;exitDx=0;exitDy=0;" edge="1" parent="1" source="59hERydLF0PkMegEaoaK-10" target="59hERydLF0PkMegEaoaK-12">
          <mxGeometry relative="1" as="geometry">
            <mxPoint x="240" y="420" as="targetPoint" />
          </mxGeometry>
        </mxCell>
        <mxCell id="59hERydLF0PkMegEaoaK-10" value="cin &amp;gt;&amp;gt; desk[1][0];" style="shape=parallelogram;html=1;strokeWidth=2;perimeter=parallelogramPerimeter;whiteSpace=wrap;rounded=1;arcSize=12;size=0.16666666666666666;" vertex="1" parent="1">
          <mxGeometry x="160" y="340" width="160" height="40" as="geometry" />
        </mxCell>
        <mxCell id="59hERydLF0PkMegEaoaK-13" style="edgeStyle=orthogonalEdgeStyle;rounded=0;orthogonalLoop=1;jettySize=auto;html=1;exitX=0.5;exitY=1;exitDx=0;exitDy=0;entryX=0.25;entryY=0;entryDx=0;entryDy=0;" edge="1" parent="1" source="59hERydLF0PkMegEaoaK-12" target="59hERydLF0PkMegEaoaK-14">
          <mxGeometry relative="1" as="geometry">
            <mxPoint x="240" y="480" as="targetPoint" />
          </mxGeometry>
        </mxCell>
        <mxCell id="59hERydLF0PkMegEaoaK-12" value="desk[1][0]--;" style="rounded=1;whiteSpace=wrap;html=1;absoluteArcSize=1;arcSize=14;strokeWidth=2;" vertex="1" parent="1">
          <mxGeometry x="190" y="400" width="100" height="40" as="geometry" />
        </mxCell>
        <mxCell id="59hERydLF0PkMegEaoaK-15" style="edgeStyle=orthogonalEdgeStyle;rounded=0;orthogonalLoop=1;jettySize=auto;html=1;exitX=0.25;exitY=1;exitDx=0;exitDy=0;" edge="1" parent="1" source="59hERydLF0PkMegEaoaK-14" target="59hERydLF0PkMegEaoaK-16">
          <mxGeometry relative="1" as="geometry">
            <mxPoint x="240" y="540" as="targetPoint" />
          </mxGeometry>
        </mxCell>
        <mxCell id="59hERydLF0PkMegEaoaK-14" value="&lt;div&gt;cout &amp;lt;&amp;lt; &quot;Если хотите просматривать каждый отдельный шаг рекурсии,&amp;nbsp;&lt;/div&gt;&lt;div&gt;введите 1, введите любую другую цифру для вывода только финальной позиции: &quot;;&lt;/div&gt;" style="shape=parallelogram;html=1;strokeWidth=2;perimeter=parallelogramPerimeter;whiteSpace=wrap;rounded=1;arcSize=12;size=0.028846153846153848;" vertex="1" parent="1">
          <mxGeometry x="110" y="460" width="520" height="40" as="geometry" />
        </mxCell>
        <mxCell id="59hERydLF0PkMegEaoaK-16" value="cin &gt;&gt; n;" style="shape=parallelogram;html=1;strokeWidth=2;perimeter=parallelogramPerimeter;whiteSpace=wrap;rounded=1;arcSize=12;size=0.16666666666666666;" vertex="1" parent="1">
          <mxGeometry x="160" y="520" width="160" height="40" as="geometry" />
        </mxCell>
        <mxCell id="59hERydLF0PkMegEaoaK-23" style="edgeStyle=orthogonalEdgeStyle;rounded=0;orthogonalLoop=1;jettySize=auto;html=1;exitX=0.5;exitY=1;exitDx=0;exitDy=0;entryX=0.5;entryY=0;entryDx=0;entryDy=0;entryPerimeter=0;" edge="1" parent="1" source="59hERydLF0PkMegEaoaK-16">
          <mxGeometry relative="1" as="geometry">
            <mxPoint x="240" y="584.5" as="targetPoint" />
          </mxGeometry>
        </mxCell>
        <mxCell id="59hERydLF0PkMegEaoaK-24" style="edgeStyle=orthogonalEdgeStyle;rounded=0;orthogonalLoop=1;jettySize=auto;html=1;exitX=0.5;exitY=1;exitDx=0;exitDy=0;exitPerimeter=0;entryX=0;entryY=0.5;entryDx=0;entryDy=0;" edge="1" source="59hERydLF0PkMegEaoaK-25" target="59hERydLF0PkMegEaoaK-27" parent="1">
          <mxGeometry relative="1" as="geometry">
            <mxPoint x="235.47619047619048" y="809.9999999999995" as="targetPoint" />
          </mxGeometry>
        </mxCell>
        <mxCell id="59hERydLF0PkMegEaoaK-25" value="switch (n)" style="strokeWidth=2;html=1;shape=mxgraph.flowchart.decision;whiteSpace=wrap;" vertex="1" parent="1">
          <mxGeometry x="145" y="585" width="190" height="55" as="geometry" />
        </mxCell>
        <mxCell id="59hERydLF0PkMegEaoaK-26" style="edgeStyle=orthogonalEdgeStyle;rounded=0;orthogonalLoop=1;jettySize=auto;html=1;exitX=1;exitY=0.5;exitDx=0;exitDy=0;" edge="1" source="59hERydLF0PkMegEaoaK-27" parent="1" target="59hERydLF0PkMegEaoaK-28">
          <mxGeometry relative="1" as="geometry">
            <mxPoint x="420" y="660" as="targetPoint" />
          </mxGeometry>
        </mxCell>
        <mxCell id="59hERydLF0PkMegEaoaK-27" value="case 1:" style="rounded=1;whiteSpace=wrap;html=1;absoluteArcSize=1;arcSize=14;strokeWidth=2;" vertex="1" parent="1">
          <mxGeometry x="280" y="639.9999999999995" width="100" height="40" as="geometry" />
        </mxCell>
        <mxCell id="59hERydLF0PkMegEaoaK-29" style="edgeStyle=orthogonalEdgeStyle;rounded=0;orthogonalLoop=1;jettySize=auto;html=1;exitX=1;exitY=0.5;exitDx=0;exitDy=0;" edge="1" parent="1" source="59hERydLF0PkMegEaoaK-28" target="59hERydLF0PkMegEaoaK-30">
          <mxGeometry relative="1" as="geometry">
            <mxPoint x="760" y="679.9999999999998" as="targetPoint" />
          </mxGeometry>
        </mxCell>
        <mxCell id="59hERydLF0PkMegEaoaK-28" value="cout &amp;lt;&amp;lt; &quot;Вывод выполнен в псевдографическом &lt;br&gt;стиле,&amp;nbsp;где x - клетки под атакой, Q - ферзи.&quot; &amp;lt;&amp;lt; endl;" style="shape=parallelogram;html=1;strokeWidth=2;perimeter=parallelogramPerimeter;whiteSpace=wrap;rounded=1;arcSize=12;size=0.07692307692307693;" vertex="1" parent="1">
          <mxGeometry x="400" y="640" width="350" height="40" as="geometry" />
        </mxCell>
        <mxCell id="59hERydLF0PkMegEaoaK-31" style="edgeStyle=orthogonalEdgeStyle;rounded=0;orthogonalLoop=1;jettySize=auto;html=1;exitX=0.5;exitY=1;exitDx=0;exitDy=0;" edge="1" parent="1" source="59hERydLF0PkMegEaoaK-30">
          <mxGeometry relative="1" as="geometry">
            <mxPoint x="240" y="799.9999999999998" as="targetPoint" />
          </mxGeometry>
        </mxCell>
        <mxCell id="59hERydLF0PkMegEaoaK-30" value="show_desk = true;" style="rounded=1;whiteSpace=wrap;html=1;absoluteArcSize=1;arcSize=14;strokeWidth=2;" vertex="1" parent="1">
          <mxGeometry x="460" y="720" width="120" height="40" as="geometry" />
        </mxCell>
        <mxCell id="59hERydLF0PkMegEaoaK-33" value="{" style="text;html=1;strokeColor=none;fillColor=none;align=center;verticalAlign=middle;whiteSpace=wrap;rounded=0;" vertex="1" parent="1">
          <mxGeometry x="210" y="640" width="30" height="30" as="geometry" />
        </mxCell>
        <mxCell id="59hERydLF0PkMegEaoaK-34" value="}" style="text;html=1;strokeColor=none;fillColor=none;align=center;verticalAlign=middle;whiteSpace=wrap;rounded=0;" vertex="1" parent="1">
          <mxGeometry x="580" y="760" width="30" height="30" as="geometry" />
        </mxCell>
        <mxCell id="59hERydLF0PkMegEaoaK-36" style="edgeStyle=orthogonalEdgeStyle;rounded=0;orthogonalLoop=1;jettySize=auto;html=1;exitX=0.5;exitY=1;exitDx=0;exitDy=0;" edge="1" parent="1" source="59hERydLF0PkMegEaoaK-35" target="59hERydLF0PkMegEaoaK-37">
          <mxGeometry relative="1" as="geometry">
            <mxPoint x="240.35294117647072" y="880" as="targetPoint" />
          </mxGeometry>
        </mxCell>
        <mxCell id="59hERydLF0PkMegEaoaK-35" value="cout &amp;lt;&amp;lt; endl;" style="shape=parallelogram;html=1;strokeWidth=2;perimeter=parallelogramPerimeter;whiteSpace=wrap;rounded=1;arcSize=12;size=0.16666666666666666;" vertex="1" parent="1">
          <mxGeometry x="160" y="800" width="160" height="40" as="geometry" />
        </mxCell>
        <mxCell id="59hERydLF0PkMegEaoaK-38" style="edgeStyle=orthogonalEdgeStyle;rounded=0;orthogonalLoop=1;jettySize=auto;html=1;exitX=0.5;exitY=1;exitDx=0;exitDy=0;" edge="1" parent="1" source="59hERydLF0PkMegEaoaK-37" target="59hERydLF0PkMegEaoaK-39">
          <mxGeometry relative="1" as="geometry">
            <mxPoint x="240.42857142857156" y="940" as="targetPoint" />
          </mxGeometry>
        </mxCell>
        <mxCell id="59hERydLF0PkMegEaoaK-37" value="system(&quot;chcp 866&quot;);" style="shape=parallelogram;html=1;strokeWidth=2;perimeter=parallelogramPerimeter;whiteSpace=wrap;rounded=1;arcSize=12;size=0.16666666666666666;" vertex="1" parent="1">
          <mxGeometry x="160.35294117647072" y="860" width="160" height="40" as="geometry" />
        </mxCell>
        <mxCell id="59hERydLF0PkMegEaoaK-40" style="edgeStyle=orthogonalEdgeStyle;rounded=0;orthogonalLoop=1;jettySize=auto;html=1;exitX=0.5;exitY=1;exitDx=0;exitDy=0;" edge="1" parent="1" source="59hERydLF0PkMegEaoaK-39" target="59hERydLF0PkMegEaoaK-41">
          <mxGeometry relative="1" as="geometry">
            <mxPoint x="240.42857142857156" y="1000" as="targetPoint" />
          </mxGeometry>
        </mxCell>
        <mxCell id="59hERydLF0PkMegEaoaK-39" value="desk_rec(0);" style="shape=parallelogram;html=1;strokeWidth=2;perimeter=parallelogramPerimeter;whiteSpace=wrap;rounded=1;arcSize=12;size=0.16666666666666666;" vertex="1" parent="1">
          <mxGeometry x="160.42857142857156" y="920" width="160" height="40" as="geometry" />
        </mxCell>
        <mxCell id="59hERydLF0PkMegEaoaK-42" style="edgeStyle=orthogonalEdgeStyle;rounded=0;orthogonalLoop=1;jettySize=auto;html=1;exitX=0.5;exitY=1;exitDx=0;exitDy=0;" edge="1" parent="1" source="59hERydLF0PkMegEaoaK-41" target="59hERydLF0PkMegEaoaK-43">
          <mxGeometry relative="1" as="geometry">
            <mxPoint x="240" y="1060" as="targetPoint" />
          </mxGeometry>
        </mxCell>
        <mxCell id="59hERydLF0PkMegEaoaK-41" value="system(&quot;chcp 1251&quot;);" style="shape=parallelogram;html=1;strokeWidth=2;perimeter=parallelogramPerimeter;whiteSpace=wrap;rounded=1;arcSize=12;size=0.16666666666666666;" vertex="1" parent="1">
          <mxGeometry x="160.42857142857156" y="980" width="160" height="40" as="geometry" />
        </mxCell>
        <mxCell id="59hERydLF0PkMegEaoaK-44" style="edgeStyle=orthogonalEdgeStyle;rounded=0;orthogonalLoop=1;jettySize=auto;html=1;exitX=0.5;exitY=1;exitDx=0;exitDy=0;" edge="1" parent="1" source="59hERydLF0PkMegEaoaK-43" target="59hERydLF0PkMegEaoaK-45">
          <mxGeometry relative="1" as="geometry">
            <mxPoint x="240.1034482758621" y="1120" as="targetPoint" />
          </mxGeometry>
        </mxCell>
        <mxCell id="59hERydLF0PkMegEaoaK-43" value="cout &lt;&lt; &quot;Финальный вариант расставления&quot; &lt;&lt; endl &lt;&lt; endl;" style="shape=parallelogram;html=1;strokeWidth=2;perimeter=parallelogramPerimeter;whiteSpace=wrap;rounded=1;arcSize=12;size=0.16666666666666666;" vertex="1" parent="1">
          <mxGeometry x="120" y="1040" width="240" height="40" as="geometry" />
        </mxCell>
        <mxCell id="59hERydLF0PkMegEaoaK-46" style="edgeStyle=orthogonalEdgeStyle;rounded=0;orthogonalLoop=1;jettySize=auto;html=1;exitX=0.5;exitY=1;exitDx=0;exitDy=0;" edge="1" parent="1" source="59hERydLF0PkMegEaoaK-45" target="59hERydLF0PkMegEaoaK-47">
          <mxGeometry relative="1" as="geometry">
            <mxPoint x="240" y="1180" as="targetPoint" />
          </mxGeometry>
        </mxCell>
        <mxCell id="59hERydLF0PkMegEaoaK-45" value="system(&quot;chcp 866&quot;);" style="shape=parallelogram;html=1;strokeWidth=2;perimeter=parallelogramPerimeter;whiteSpace=wrap;rounded=1;arcSize=12;size=0.16666666666666666;" vertex="1" parent="1">
          <mxGeometry x="160.1034482758621" y="1100" width="160" height="40" as="geometry" />
        </mxCell>
        <mxCell id="59hERydLF0PkMegEaoaK-48" style="edgeStyle=orthogonalEdgeStyle;rounded=0;orthogonalLoop=1;jettySize=auto;html=1;exitX=0.5;exitY=1;exitDx=0;exitDy=0;" edge="1" parent="1" source="59hERydLF0PkMegEaoaK-47" target="59hERydLF0PkMegEaoaK-49">
          <mxGeometry relative="1" as="geometry">
            <mxPoint x="240" y="1240" as="targetPoint" />
          </mxGeometry>
        </mxCell>
        <mxCell id="59hERydLF0PkMegEaoaK-47" value="desk_print_all();" style="shape=parallelogram;html=1;strokeWidth=2;perimeter=parallelogramPerimeter;whiteSpace=wrap;rounded=1;arcSize=12;size=0.16666666666666666;" vertex="1" parent="1">
          <mxGeometry x="160" y="1160" width="160" height="40" as="geometry" />
        </mxCell>
        <mxCell id="59hERydLF0PkMegEaoaK-51" style="edgeStyle=orthogonalEdgeStyle;rounded=0;orthogonalLoop=1;jettySize=auto;html=1;exitX=0.5;exitY=1;exitDx=0;exitDy=0;entryX=0.5;entryY=0;entryDx=0;entryDy=0;" edge="1" parent="1" source="59hERydLF0PkMegEaoaK-49" target="59hERydLF0PkMegEaoaK-50">
          <mxGeometry relative="1" as="geometry" />
        </mxCell>
        <mxCell id="59hERydLF0PkMegEaoaK-49" value="system(&quot;chcp 1251&quot;);" style="shape=parallelogram;html=1;strokeWidth=2;perimeter=parallelogramPerimeter;whiteSpace=wrap;rounded=1;arcSize=12;size=0.16666666666666666;" vertex="1" parent="1">
          <mxGeometry x="160" y="1220" width="160" height="40" as="geometry" />
        </mxCell>
        <mxCell id="59hERydLF0PkMegEaoaK-53" style="edgeStyle=orthogonalEdgeStyle;rounded=0;orthogonalLoop=1;jettySize=auto;html=1;exitX=0.5;exitY=1;exitDx=0;exitDy=0;entryX=0.5;entryY=0;entryDx=0;entryDy=0;" edge="1" parent="1" source="59hERydLF0PkMegEaoaK-50" target="59hERydLF0PkMegEaoaK-52">
          <mxGeometry relative="1" as="geometry" />
        </mxCell>
        <mxCell id="59hERydLF0PkMegEaoaK-50" value="system(&quot;pause&quot;);" style="shape=parallelogram;html=1;strokeWidth=2;perimeter=parallelogramPerimeter;whiteSpace=wrap;rounded=1;arcSize=12;size=0.16666666666666666;" vertex="1" parent="1">
          <mxGeometry x="160" y="1280" width="160" height="40" as="geometry" />
        </mxCell>
        <mxCell id="59hERydLF0PkMegEaoaK-52" value="return 0;" style="ellipse;whiteSpace=wrap;html=1;" vertex="1" parent="1">
          <mxGeometry x="180" y="1340" width="120" height="40" as="geometry" />
        </mxCell>
        <mxCell id="59hERydLF0PkMegEaoaK-55" value="}" style="text;html=1;strokeColor=none;fillColor=none;align=center;verticalAlign=middle;whiteSpace=wrap;rounded=0;" vertex="1" parent="1">
          <mxGeometry x="300" y="1345" width="30" height="30" as="geometry" />
        </mxCell>
      </root>
    </mxGraphModel>
  </diagram>
</mxfile>
